# xmcd
#
# Track frame offsets: 
#        150
#        10407
#        21177
#        33155
#        45633
#        57205
#        67623
#        79194
#        90742
#        103421
#        117066
#        129729
#
# Disc length: 1873 seconds
#
# Revision: 3
# Processed by: cddbd v1.5.2PL0 Copyright (c) Steve Scherf et al.
# Submitted via: ExactAudioCopy v1.1
#
DISCID=94074f0c
DTITLE=Howard Tate - Reaction
DYEAR=1969
DGENRE=Rhythm and Blues
TTITLE0=Question (stereo)
TTITLE1=Have You Ever Had The Blues (stereo)
TTITLE2=Plenty Of Love (stereo)
TTITLE3=That's What Happens (stereo)
TTITLE4=Little Volcano (stereo)
TTITLE5=It's Too Late (stereo)
TTITLE6=Hold Me Tight (stereo)
TTITLE7=Come Into My Heart (stereo)
TTITLE8=What'll I Do (stereo)
TTITLE9=Chain Gang (stereo)
TTITLE10=My Soul's Got A Hole In It (stereo)
TTITLE11=These Are The Things That Make Me Know You're Gone (stereo)
EXTD=Produced By Johnny Nash and Lloyd Price\n\nArthur Jenkins - piano, a
EXTD=rranger\nRichard Tee - piano\nEric Gale - guitar\nBernard Purdie - d
EXTD=rums\nP. Martinez - bass\nJerry Jemmott - bass\nJerry Thomas - trump
EXTD=et, arranger\nPrince D. - saxophone\nS. Hurt - trombone\nSleep - bar
EXTD=itone sax\nJohny Nash background singers\n
EXTT0=
EXTT1=
EXTT2=
EXTT3=
EXTT4=
EXTT5=
EXTT6=
EXTT7=
EXTT8=
EXTT9=
EXTT10=
EXTT11=
PLAYORDER=
